<svg xmlns="http://www.w3.org/2000/svg" xmlns:xlink="http://www.w3.org/1999/xlink" viewBox="0 0 100 116"><defs><style>.cls-1{isolation:isolate;}.cls-2{fill:url(#linear-gradient);}.cls-3{fill:#e6e8e5;opacity:0.5;}.cls-10,.cls-12,.cls-13,.cls-14,.cls-15,.cls-17,.cls-18,.cls-19,.cls-20,.cls-22,.cls-23,.cls-24,.cls-25,.cls-27,.cls-28,.cls-29,.cls-3,.cls-30,.cls-6,.cls-7,.cls-8,.cls-9{mix-blend-mode:multiply;}.cls-4{fill:url(#linear-gradient-2);}.cls-5{fill:url(#linear-gradient-3);}.cls-6{fill:url(#linear-gradient-4);}.cls-7{fill:url(#linear-gradient-5);}.cls-8{fill:url(#linear-gradient-6);}.cls-9{fill:url(#linear-gradient-7);}.cls-11{fill:url(#linear-gradient-8);}.cls-12{fill:url(#linear-gradient-9);}.cls-13{fill:url(#linear-gradient-10);}.cls-14{fill:url(#linear-gradient-11);}.cls-15{fill:url(#linear-gradient-12);}.cls-16{fill:url(#linear-gradient-13);}.cls-17{fill:url(#linear-gradient-14);}.cls-18{fill:url(#linear-gradient-15);}.cls-19{fill:url(#linear-gradient-16);}.cls-20{fill:url(#linear-gradient-17);}.cls-21{fill:url(#linear-gradient-18);}.cls-22{fill:url(#linear-gradient-19);}.cls-23{fill:url(#linear-gradient-20);}.cls-24{fill:url(#linear-gradient-21);}.cls-25{fill:url(#linear-gradient-22);}.cls-26{fill:url(#linear-gradient-23);}.cls-27{fill:url(#linear-gradient-24);}.cls-28{fill:url(#linear-gradient-25);}.cls-29{fill:url(#linear-gradient-26);}.cls-30{fill:url(#linear-gradient-27);}</style><linearGradient id="linear-gradient" x1="50" y1="92.94" x2="50" y2="1.19" gradientUnits="userSpaceOnUse"><stop offset="0" stop-color="#ceccce"/><stop offset="1" stop-color="#e6e8e5"/></linearGradient><linearGradient id="linear-gradient-2" x1="8.21" y1="47.06" x2="91.79" y2="47.06" xlink:href="#linear-gradient"/><linearGradient id="linear-gradient-3" x1="39.1" y1="104.14" x2="60.9" y2="104.14" xlink:href="#linear-gradient"/><linearGradient id="linear-gradient-4" x1="43.27" y1="109.77" x2="56.73" y2="109.77" xlink:href="#linear-gradient"/><linearGradient id="linear-gradient-5" x1="39.1" y1="104.35" x2="50" y2="104.35" xlink:href="#linear-gradient"/><linearGradient id="linear-gradient-6" x1="50" y1="99.56" x2="53.37" y2="99.56" xlink:href="#linear-gradient"/><linearGradient id="linear-gradient-7" x1="50" y1="104.35" x2="60.9" y2="104.35" xlink:href="#linear-gradient"/><linearGradient id="linear-gradient-8" x1="65.19" y1="100.2" x2="84.34" y2="100.2" xlink:href="#linear-gradient"/><linearGradient id="linear-gradient-9" x1="68.85" y1="105.15" x2="80.68" y2="105.15" xlink:href="#linear-gradient"/><linearGradient id="linear-gradient-10" x1="65.19" y1="100.39" x2="74.76" y2="100.39" xlink:href="#linear-gradient"/><linearGradient id="linear-gradient-11" x1="74.76" y1="96.18" x2="77.72" y2="96.18" xlink:href="#linear-gradient"/><linearGradient id="linear-gradient-12" x1="74.76" y1="100.39" x2="84.34" y2="100.39" xlink:href="#linear-gradient"/><linearGradient id="linear-gradient-13" x1="81.7" y1="86.26" x2="97.22" y2="86.26" xlink:href="#linear-gradient"/><linearGradient id="linear-gradient-14" x1="84.66" y1="90.27" x2="94.25" y2="90.27" xlink:href="#linear-gradient"/><linearGradient id="linear-gradient-15" x1="81.7" y1="86.41" x2="89.46" y2="86.41" xlink:href="#linear-gradient"/><linearGradient id="linear-gradient-16" x1="89.46" y1="83" x2="91.85" y2="83" xlink:href="#linear-gradient"/><linearGradient id="linear-gradient-17" x1="89.46" y1="86.41" x2="97.22" y2="86.41" xlink:href="#linear-gradient"/><linearGradient id="linear-gradient-18" x1="15.66" y1="100.2" x2="34.81" y2="100.2" xlink:href="#linear-gradient"/><linearGradient id="linear-gradient-19" x1="131.25" y1="105.15" x2="143.09" y2="105.15" gradientTransform="matrix(-1, 0, 0, 1, 162.4, 0)" xlink:href="#linear-gradient"/><linearGradient id="linear-gradient-20" x1="127.59" y1="100.39" x2="137.17" y2="100.39" gradientTransform="matrix(-1, 0, 0, 1, 162.4, 0)" xlink:href="#linear-gradient"/><linearGradient id="linear-gradient-21" x1="137.17" y1="96.18" x2="140.13" y2="96.18" gradientTransform="matrix(-1, 0, 0, 1, 162.4, 0)" xlink:href="#linear-gradient"/><linearGradient id="linear-gradient-22" x1="137.17" y1="100.39" x2="146.74" y2="100.39" gradientTransform="matrix(-1, 0, 0, 1, 162.4, 0)" xlink:href="#linear-gradient"/><linearGradient id="linear-gradient-23" x1="2.78" y1="86.26" x2="18.3" y2="86.26" xlink:href="#linear-gradient"/><linearGradient id="linear-gradient-24" x1="147.07" y1="90.27" x2="156.66" y2="90.27" gradientTransform="matrix(-1, 0, 0, 1, 162.4, 0)" xlink:href="#linear-gradient"/><linearGradient id="linear-gradient-25" x1="144.1" y1="86.41" x2="151.86" y2="86.41" gradientTransform="matrix(-1, 0, 0, 1, 162.4, 0)" xlink:href="#linear-gradient"/><linearGradient id="linear-gradient-26" x1="151.86" y1="83" x2="154.26" y2="83" gradientTransform="matrix(-1, 0, 0, 1, 162.4, 0)" xlink:href="#linear-gradient"/><linearGradient id="linear-gradient-27" x1="151.86" y1="86.41" x2="159.62" y2="86.41" gradientTransform="matrix(-1, 0, 0, 1, 162.4, 0)" xlink:href="#linear-gradient"/></defs><title>User</title><g class="cls-1"><g id="Layer_1" data-name="Layer 1"><path class="cls-2" d="M50,1.5A45.57,45.57,0,1,0,95.36,47.06,45.46,45.46,0,0,0,50,1.5Zm0,86.89A41.33,41.33,0,1,1,91.13,47.06,41.28,41.28,0,0,1,50,88.39Z"/><path class="cls-3" d="M50,2.2A44.87,44.87,0,1,0,94.66,47.06,44.81,44.81,0,0,0,50,2.2Zm0,86.19A41.33,41.33,0,1,1,91.13,47.06,41.28,41.28,0,0,1,50,88.39Z"/><path class="cls-4" d="M50,5.09a42,42,0,1,0,41.79,42A41.93,41.93,0,0,0,50,5.09Zm0,79.65A37.68,37.68,0,1,1,87.5,47.06,37.63,37.63,0,0,1,50,84.74Z"/><polygon class="cls-5" points="50 93.78 53.37 100.6 60.9 101.69 55.45 107 56.73 114.5 50 110.96 43.27 114.5 44.55 107 39.1 101.69 46.63 100.6 50 93.78"/><polygon class="cls-6" points="43.27 114.5 50 105.04 56.73 114.5 50 110.96 43.27 114.5"/><polygon class="cls-7" points="50 105.04 44.55 107 39.1 101.69 50 105.04"/><polygon class="cls-8" points="50 94.07 50 105.04 53.37 100.6 50 94.07"/><polygon class="cls-9" points="60.9 101.69 50 105.04 55.45 107 60.9 101.69"/><g class="cls-10"><polygon class="cls-11" points="74.76 91.09 77.72 97.09 84.34 98.05 79.55 102.72 80.68 109.31 74.76 106.2 68.84 109.31 69.98 102.72 65.19 98.05 71.8 97.09 74.76 91.09"/></g><polygon class="cls-12" points="68.84 109.31 74.76 101 80.68 109.31 74.76 106.2 68.84 109.31"/><polygon class="cls-13" points="74.76 101 69.98 102.72 65.19 98.05 74.76 101"/><polygon class="cls-14" points="74.76 91.36 74.76 101 77.72 97.09 74.76 91.36"/><polygon class="cls-15" points="84.34 98.05 74.76 101 79.55 102.72 84.34 98.05"/><polygon class="cls-16" points="89.46 78.88 91.86 83.74 97.22 84.52 93.34 88.3 94.25 93.64 89.46 91.12 84.66 93.64 85.58 88.3 81.7 84.52 87.06 83.74 89.46 78.88"/><polygon class="cls-17" points="84.66 93.64 89.46 86.9 94.25 93.64 89.46 91.12 84.66 93.64"/><polygon class="cls-18" points="89.46 86.9 85.58 88.3 81.7 84.52 89.46 86.9"/><polygon class="cls-19" points="89.46 79.09 89.46 86.9 91.86 83.74 89.46 79.09"/><polygon class="cls-20" points="97.22 84.52 89.46 86.9 93.34 88.3 97.22 84.52"/><polygon class="cls-21" points="25.24 91.09 22.28 97.09 15.66 98.05 20.45 102.72 19.32 109.31 25.24 106.2 31.15 109.31 30.02 102.72 34.81 98.05 28.2 97.09 25.24 91.09"/><polygon class="cls-22" points="31.15 109.31 25.24 101 19.32 109.31 25.24 106.2 31.15 109.31"/><polygon class="cls-23" points="25.24 101 30.02 102.72 34.81 98.05 25.24 101"/><polygon class="cls-24" points="25.24 91.36 25.24 101 22.28 97.09 25.24 91.36"/><polygon class="cls-25" points="15.66 98.05 25.24 101 20.45 102.72 15.66 98.05"/><g class="cls-10"><polygon class="cls-26" points="10.54 78.88 8.14 83.74 2.78 84.52 6.66 88.3 5.75 93.64 10.54 91.12 15.34 93.64 14.42 88.3 18.3 84.52 12.94 83.74 10.54 78.88"/></g><polygon class="cls-27" points="15.34 93.64 10.54 86.9 5.75 93.64 10.54 91.12 15.34 93.64"/><polygon class="cls-28" points="10.54 86.9 14.42 88.3 18.3 84.52 10.54 86.9"/><polygon class="cls-29" points="10.54 79.09 10.54 86.9 8.14 83.74 10.54 79.09"/><polygon class="cls-30" points="2.78 84.52 10.54 86.9 6.66 88.3 2.78 84.52"/></g></g></svg>