<svg id="Layer_1" data-name="Layer 1" xmlns="http://www.w3.org/2000/svg" viewBox="0 0 400 400"><defs><style>.cls-1{fill:#d8d8d8;}</style></defs><title>Avater-default</title><path class="cls-1" d="M188.28,0h23.44c5.28.63,10.57,1.17,15.83,1.91C267,7.47,301.85,23.23,331.7,49.59c35.16,31,57.14,69.67,65.23,116,1.31,7.51,2.06,15.12,3.07,22.69v23.44c-.61,5.13-1.12,10.28-1.83,15.39C392.58,267,376.69,302.19,350,332.26c-31,34.85-69.46,56.6-115.49,64.66-7.53,1.32-15.16,2.07-22.75,3.08H188.28c-5.28-.63-10.57-1.17-15.83-1.91C133,392.53,98.15,376.77,68.3,350.41c-35.16-31-57.14-69.67-65.23-116C1.76,226.9,1,219.29,0,211.72V188.28c.61-5.13,1.12-10.28,1.83-15.39C7.43,133,23.31,97.81,50,67.74,81,32.89,119.5,11.14,165.53,3.08,173.06,1.76,180.69,1,188.28,0ZM340.07,306.89c51.84-66.22,51.37-170.48-21.1-237.18C249.36,5.64,140.31,8.6,74.41,76,5.91,146.15,12.21,247.12,60,306.78q27.93-61.32,91.61-84.18c-41.22-31.71-42.74-86.36-14-119.42C167.49,68.82,218,64.4,252.19,93.09c17.35,14.55,27.59,33.19,29.38,55.8,2.4,30.24-9.29,54.64-33.12,73.75C291,238.06,321.46,266,340.07,306.89Zm-136.71,69.8c5.18-.46,13.78-.78,22.25-2.05,36.3-5.41,67.84-20.82,94.82-45.69,1.63-1.51,1.82-2.66,1.11-4.66-21.08-59.87-83.41-96.12-145.67-83.48-47.51,9.65-79.91,38-97.31,83.36-.73,1.91-.74,3.15,1,4.71C113.58,360.17,153.76,375.93,203.36,376.69Zm55.22-220.48A58.58,58.58,0,1,0,200,214.83,58.78,58.78,0,0,0,258.58,156.21Z"/></svg>