<svg xmlns="http://www.w3.org/2000/svg" xmlns:xlink="http://www.w3.org/1999/xlink" viewBox="0 0 100 116"><defs><style>.cls-1{isolation:isolate;}.cls-2{fill:url(#linear-gradient);}.cls-3{fill:#f2e6d7;opacity:0.5;}.cls-10,.cls-12,.cls-13,.cls-14,.cls-15,.cls-17,.cls-18,.cls-19,.cls-20,.cls-22,.cls-23,.cls-24,.cls-25,.cls-27,.cls-28,.cls-29,.cls-3,.cls-30,.cls-6,.cls-7,.cls-8,.cls-9{mix-blend-mode:multiply;}.cls-4{fill:url(#linear-gradient-2);}.cls-5{fill:url(#linear-gradient-3);}.cls-7{fill:url(#linear-gradient-4);}.cls-8{fill:url(#linear-gradient-5);}.cls-9{fill:url(#linear-gradient-6);}.cls-10{fill:url(#linear-gradient-7);}.cls-11{fill:url(#linear-gradient-8);}.cls-12{fill:url(#linear-gradient-9);}.cls-13{fill:url(#linear-gradient-10);}.cls-14{fill:url(#linear-gradient-11);}.cls-15{fill:url(#linear-gradient-12);}.cls-16{fill:url(#linear-gradient-13);}.cls-17{fill:url(#linear-gradient-14);}.cls-18{fill:url(#linear-gradient-15);}.cls-19{fill:url(#linear-gradient-16);}.cls-20{fill:url(#linear-gradient-17);}.cls-21{fill:url(#linear-gradient-18);}.cls-22{fill:url(#linear-gradient-19);}.cls-23{fill:url(#linear-gradient-20);}.cls-24{fill:url(#linear-gradient-21);}.cls-25{fill:url(#linear-gradient-22);}.cls-26{fill:url(#linear-gradient-23);}.cls-27{fill:url(#linear-gradient-24);}.cls-28{fill:url(#linear-gradient-25);}.cls-29{fill:url(#linear-gradient-26);}.cls-30{fill:url(#linear-gradient-27);}</style><linearGradient id="linear-gradient" x1="50" y1="92.94" x2="50" y2="1.19" gradientUnits="userSpaceOnUse"><stop offset="0.18" stop-color="#c9681f"/><stop offset="0.25" stop-color="#e18448"/><stop offset="0.34" stop-color="#e79562"/><stop offset="0.43" stop-color="#e5a371"/><stop offset="0.52" stop-color="#efd7a8"/><stop offset="0.6" stop-color="#e5a371"/><stop offset="0.69" stop-color="#e79562"/><stop offset="0.77" stop-color="#e18449"/><stop offset="1" stop-color="#c9681f"/></linearGradient><linearGradient id="linear-gradient-2" x1="8.21" y1="47.06" x2="91.79" y2="47.06" xlink:href="#linear-gradient"/><linearGradient id="linear-gradient-3" x1="39.39" y1="104.14" x2="61.18" y2="104.14" xlink:href="#linear-gradient"/><linearGradient id="linear-gradient-4" x1="43.55" y1="109.77" x2="57.02" y2="109.77" gradientUnits="userSpaceOnUse"><stop offset="0" stop-color="#c9681f"/><stop offset="0.64" stop-color="#eed5a7"/><stop offset="1" stop-color="#df8053"/></linearGradient><linearGradient id="linear-gradient-5" x1="39.39" y1="104.35" x2="50.29" y2="104.35" xlink:href="#linear-gradient-4"/><linearGradient id="linear-gradient-6" x1="50.29" y1="99.56" x2="53.65" y2="99.56" xlink:href="#linear-gradient-4"/><linearGradient id="linear-gradient-7" x1="50.29" y1="104.35" x2="61.18" y2="104.35" xlink:href="#linear-gradient-4"/><linearGradient id="linear-gradient-8" x1="64.71" y1="100.14" x2="83.86" y2="100.14" xlink:href="#linear-gradient"/><linearGradient id="linear-gradient-9" x1="68.37" y1="105.09" x2="80.21" y2="105.09" xlink:href="#linear-gradient-4"/><linearGradient id="linear-gradient-10" x1="64.71" y1="100.32" x2="74.29" y2="100.32" xlink:href="#linear-gradient-4"/><linearGradient id="linear-gradient-11" x1="74.29" y1="96.11" x2="77.25" y2="96.11" xlink:href="#linear-gradient-4"/><linearGradient id="linear-gradient-12" x1="74.29" y1="100.32" x2="83.86" y2="100.32" xlink:href="#linear-gradient-4"/><linearGradient id="linear-gradient-13" x1="80.71" y1="86.79" x2="94.29" y2="86.79" xlink:href="#linear-gradient"/><linearGradient id="linear-gradient-14" x1="83.3" y1="90.3" x2="91.7" y2="90.3" xlink:href="#linear-gradient-4"/><linearGradient id="linear-gradient-15" x1="80.71" y1="86.92" x2="87.5" y2="86.92" xlink:href="#linear-gradient-4"/><linearGradient id="linear-gradient-16" x1="87.5" y1="83.94" x2="89.6" y2="83.94" xlink:href="#linear-gradient-4"/><linearGradient id="linear-gradient-17" x1="87.5" y1="86.92" x2="94.29" y2="86.92" xlink:href="#linear-gradient-4"/><linearGradient id="linear-gradient-18" x1="24.05" y1="100.14" x2="43.2" y2="100.14" gradientTransform="matrix(-1, 0, 0, 1, 59.33, 0)" xlink:href="#linear-gradient"/><linearGradient id="linear-gradient-19" x1="27.7" y1="105.09" x2="39.54" y2="105.09" gradientTransform="matrix(-1, 0, 0, 1, 59.33, 0)" xlink:href="#linear-gradient-4"/><linearGradient id="linear-gradient-20" x1="24.05" y1="100.32" x2="33.62" y2="100.32" gradientTransform="matrix(-1, 0, 0, 1, 59.33, 0)" xlink:href="#linear-gradient-4"/><linearGradient id="linear-gradient-21" x1="33.62" y1="96.11" x2="36.58" y2="96.11" gradientTransform="matrix(-1, 0, 0, 1, 59.33, 0)" xlink:href="#linear-gradient-4"/><linearGradient id="linear-gradient-22" x1="33.62" y1="100.32" x2="43.2" y2="100.32" gradientTransform="matrix(-1, 0, 0, 1, 59.33, 0)" xlink:href="#linear-gradient-4"/><linearGradient id="linear-gradient-23" x1="40.05" y1="86.79" x2="53.62" y2="86.79" gradientTransform="matrix(-1, 0, 0, 1, 59.33, 0)" xlink:href="#linear-gradient"/><linearGradient id="linear-gradient-24" x1="42.64" y1="90.3" x2="51.03" y2="90.3" gradientTransform="matrix(-1, 0, 0, 1, 59.33, 0)" xlink:href="#linear-gradient-4"/><linearGradient id="linear-gradient-25" x1="40.05" y1="86.92" x2="46.83" y2="86.92" gradientTransform="matrix(-1, 0, 0, 1, 59.33, 0)" xlink:href="#linear-gradient-4"/><linearGradient id="linear-gradient-26" x1="46.83" y1="83.94" x2="48.93" y2="83.94" gradientTransform="matrix(-1, 0, 0, 1, 59.33, 0)" xlink:href="#linear-gradient-4"/><linearGradient id="linear-gradient-27" x1="46.83" y1="86.92" x2="53.62" y2="86.92" gradientTransform="matrix(-1, 0, 0, 1, 59.33, 0)" xlink:href="#linear-gradient-4"/></defs><title>User</title><g class="cls-1"><g id="Layer_1" data-name="Layer 1"><path class="cls-2" d="M50,1.5A45.57,45.57,0,1,0,95.36,47.06,45.46,45.46,0,0,0,50,1.5Zm0,86.89A41.33,41.33,0,1,1,91.13,47.06,41.28,41.28,0,0,1,50,88.39Z"/><path class="cls-3" d="M50,2.2A44.87,44.87,0,1,0,94.66,47.06,44.81,44.81,0,0,0,50,2.2Zm0,86.19A41.33,41.33,0,1,1,91.13,47.06,41.28,41.28,0,0,1,50,88.39Z"/><path class="cls-4" d="M50,5.09a42,42,0,1,0,41.79,42A41.93,41.93,0,0,0,50,5.09Zm0,79.65A37.68,37.68,0,1,1,87.5,47.06,37.63,37.63,0,0,1,50,84.74Z"/><polygon class="cls-5" points="50.29 93.78 53.66 100.6 61.18 101.69 55.74 107 57.02 114.5 50.29 110.96 43.55 114.5 44.84 107 39.39 101.69 46.92 100.6 50.29 93.78"/><g class="cls-6"><polygon class="cls-7" points="43.55 114.5 50.29 105.04 57.02 114.5 50.29 110.96 43.55 114.5"/><polygon class="cls-8" points="50.29 105.04 44.84 107 39.39 101.69 50.29 105.04"/><polygon class="cls-9" points="50.29 94.07 50.29 105.04 53.66 100.6 50.29 94.07"/><polygon class="cls-10" points="61.18 101.69 50.29 105.04 55.74 107 61.18 101.69"/></g><polygon class="cls-11" points="74.29 91.03 77.25 97.03 83.86 97.99 79.08 102.65 80.21 109.24 74.29 106.13 68.37 109.24 69.5 102.65 64.71 97.99 71.33 97.03 74.29 91.03"/><g class="cls-6"><polygon class="cls-12" points="68.37 109.24 74.29 100.93 80.21 109.24 74.29 106.13 68.37 109.24"/><polygon class="cls-13" points="74.29 100.93 69.5 102.65 64.71 97.99 74.29 100.93"/><polygon class="cls-14" points="74.29 91.29 74.29 100.93 77.25 97.03 74.29 91.29"/><polygon class="cls-15" points="83.86 97.99 74.29 100.93 79.08 102.65 83.86 97.99"/></g><polygon class="cls-16" points="87.5 80.33 89.6 84.58 94.29 85.27 90.89 88.57 91.69 93.24 87.5 91.04 83.31 93.24 84.11 88.57 80.71 85.27 85.4 84.58 87.5 80.33"/><g class="cls-6"><polygon class="cls-17" points="83.31 93.24 87.5 87.35 91.69 93.24 87.5 91.04 83.31 93.24"/><polygon class="cls-18" points="87.5 87.35 84.11 88.57 80.71 85.27 87.5 87.35"/><polygon class="cls-19" points="87.5 80.52 87.5 87.35 89.6 84.58 87.5 80.52"/><polygon class="cls-20" points="94.29 85.27 87.5 87.35 90.89 88.57 94.29 85.27"/></g><polygon class="cls-21" points="25.71 91.03 22.75 97.03 16.14 97.99 20.92 102.65 19.79 109.24 25.71 106.13 31.63 109.24 30.5 102.65 35.29 97.99 28.67 97.03 25.71 91.03"/><g class="cls-6"><polygon class="cls-22" points="31.63 109.24 25.71 100.93 19.79 109.24 25.71 106.13 31.63 109.24"/><polygon class="cls-23" points="25.71 100.93 30.5 102.65 35.29 97.99 25.71 100.93"/><polygon class="cls-24" points="25.71 91.29 25.71 100.93 22.75 97.03 25.71 91.29"/><polygon class="cls-25" points="16.14 97.99 25.71 100.93 20.92 102.65 16.14 97.99"/></g><polygon class="cls-26" points="12.5 80.33 10.4 84.58 5.71 85.27 9.11 88.57 8.3 93.24 12.5 91.04 16.7 93.24 15.89 88.57 19.29 85.27 14.6 84.58 12.5 80.33"/><g class="cls-6"><polygon class="cls-27" points="16.7 93.24 12.5 87.35 8.3 93.24 12.5 91.04 16.7 93.24"/><polygon class="cls-28" points="12.5 87.35 15.89 88.57 19.29 85.27 12.5 87.35"/><polygon class="cls-29" points="12.5 80.52 12.5 87.35 10.4 84.58 12.5 80.52"/><polygon class="cls-30" points="5.71 85.27 12.5 87.35 9.11 88.57 5.71 85.27"/></g></g></g></svg>