<svg id="Layer_1" data-name="Layer 1" xmlns="http://www.w3.org/2000/svg" viewBox="0 0 25 25"><defs><style>.cls-1{fill:#2f3a7a;}.cls-2{fill:#5f6bb2;}.cls-3{fill:#2f3896;}.cls-4{fill:#424da1;}.cls-5{fill:#fff;}</style></defs><title>C language</title><path class="cls-1" d="M12.5,24.5a2.84,2.84,0,0,1-1.44-.42c-.64-.38-2.87-1.66-4.83-2.79L3.06,19.47a2.68,2.68,0,0,1-1-1,2.7,2.7,0,0,1-.32-1.31V7.83a2.55,2.55,0,0,1,1.31-2.3L6.24,3.7c2-1.12,4.19-2.4,4.83-2.78a2.64,2.64,0,0,1,2.82,0l4.55,2.62,3.5,2a2.63,2.63,0,0,1,1,1,2.59,2.59,0,0,1,.34,1.34h0v9.33a2.74,2.74,0,0,1-.32,1.32,2.59,2.59,0,0,1-1,1l-3.37,1.95L13.89,24.1A2.73,2.73,0,0,1,12.5,24.5Zm0-22.65a1.51,1.51,0,0,0-.75.23L6.92,4.87,3.74,6.7A1.2,1.2,0,0,0,3.1,7.83v9.34a1.37,1.37,0,0,0,.15.66,1.31,1.31,0,0,0,.49.47L6.9,20.12c2,1.13,4.2,2.41,4.85,2.8a1.3,1.3,0,0,0,1.46,0l4.68-2.69,3.37-1.94a1.31,1.31,0,0,0,.49-.47,1.38,1.38,0,0,0,.15-.67V7.84h0a1.32,1.32,0,0,0-.16-.68,1.25,1.25,0,0,0-.48-.46l-3.5-2Q15.5,3.37,13.21,2.07A1.36,1.36,0,0,0,12.5,1.85Z"/><path id="_Path_" data-name="&lt;Path&gt;" class="cls-2" d="M22.57,7.83a2,2,0,0,0-.24-1,1.92,1.92,0,0,0-.73-.71l-8-4.64a2,2,0,0,0-2.14,0c-1.07.63-6.42,3.7-8,4.62a1.86,1.86,0,0,0-1,1.71v9.34a2,2,0,0,0,.23,1,1.86,1.86,0,0,0,.74.73c1.59.92,6.94,4,8,4.62a2,2,0,0,0,2.14,0l8.05-4.64a1.92,1.92,0,0,0,.74-.73,2,2,0,0,0,.23-1V7.83"/><path id="_Path_2" data-name="&lt;Path&gt;" class="cls-3" d="M12.53,12.47,2.66,18.15a1.86,1.86,0,0,0,.74.73c1.59.92,6.94,4,8,4.62a2,2,0,0,0,2.14,0l8.05-4.64a1.92,1.92,0,0,0,.74-.73l-9.81-5.68"/><path id="_Path_3" data-name="&lt;Path&gt;" class="cls-3" d="M9.61,14.15a3.32,3.32,0,0,0,5.79,0l-2.87-1.66L9.61,14.15"/><path id="_Path_4" data-name="&lt;Path&gt;" class="cls-4" d="M22.57,7.83a2,2,0,0,0-.24-1l-9.8,5.64,9.81,5.68a2,2,0,0,0,.23-1V7.83"/><path id="_Path_5" data-name="&lt;Path&gt;" class="cls-5" d="M15.4,14.13a3.33,3.33,0,1,1,0-3.3l2.91-1.68a6.69,6.69,0,1,0,0,6.67L15.4,14.13"/></svg>