<?xml version="1.0" encoding="utf-8"?>
<!-- Generator: Adobe Illustrator 23.0.4, SVG Export Plug-In . SVG Version: 6.00 Build 0)  -->
<svg version="1.1" id="Layer_1" xmlns="http://www.w3.org/2000/svg" xmlns:xlink="http://www.w3.org/1999/xlink" x="0px" y="0px"
	 viewBox="0 0 70 70" style="enable-background:new 0 0 70 70;" xml:space="preserve">
<style type="text/css">
	.st0{fill:#336791;}
	.st1{fill:#FFFFFF;}
</style>
<g>
	<title>csharp</title>
	<desc>Created with Sketch.</desc>
	<path d="M61.3,41.5c-0.3-1-1.1-1.6-2.2-1.8c-0.5-0.1-1.1,0-1.8,0.1c-1.2,0.2-2.1,0.3-2.7,0.4c2.4-4.1,4.4-8.8,5.6-13.3
		C62,19.7,61,16.4,59.9,15c-3.1-3.9-7.5-6-12.9-6.1c-2.9,0-5.4,0.5-6.7,0.9c-1.2-0.2-2.5-0.3-3.9-0.4c-2.6,0-4.9,0.5-6.8,1.7
		c-1.1-0.4-2.8-0.9-4.8-1.2c-4.7-0.8-8.5-0.2-11.3,1.8C10,14.1,8.4,18.3,8.7,24c0.1,1.8,1.1,7.4,2.7,12.7c0.9,3,1.9,5.6,2.9,7.5
		c1.5,2.8,3,4.4,4.8,5c1,0.3,2.8,0.6,4.6-1c0.2,0.3,0.6,0.6,1,0.8c0.5,0.3,1.2,0.6,1.8,0.8c2.3,0.6,4.5,0.4,6.4-0.4
		c0,0.3,0,0.7,0,0.9c0,0.4,0,0.9,0,1.3c0.1,2.8,0.3,4.9,0.9,6.4c0,0.1,0.1,0.2,0.1,0.3c0.3,0.9,0.7,2.3,1.9,3.4
		c1.2,1.2,2.7,1.5,4.1,1.5c0.7,0,1.3-0.1,1.9-0.2c2-0.4,4.3-1.1,6-3.5c1.6-2.2,2.3-5.6,2.5-11c0-0.2,0-0.3,0.1-0.4l0-0.3l0.4,0
		l0.1,0c2.1,0.1,4.6-0.3,6.1-1.1C58.3,46.4,62.3,44.3,61.3,41.5"/>
	<path class="st0" d="M57.8,42c-6.1,1.3-6.6-0.8-6.6-0.8c6.5-9.6,9.2-21.9,6.9-24.8c-6.4-8.2-17.4-4.3-17.6-4.2l-0.1,0
		c-1.2-0.3-2.6-0.4-4.1-0.4c-2.8,0-4.9,0.7-6.5,1.9c0,0-19.7-8.1-18.8,10.2c0.2,3.9,5.6,29.5,12,21.8c2.4-2.8,4.6-5.2,4.6-5.2
		c1.1,0.8,2.5,1.1,3.9,1l0.1-0.1c0,0.4,0,0.7,0,1.1c-1.7,1.9-1.2,2.2-4.5,2.9c-3.4,0.7-1.4,1.9-0.1,2.2c1.6,0.4,5.2,0.9,7.6-2.5
		l-0.1,0.4c0.6,0.5,1.1,3.4,1,6c-0.1,2.6-0.1,4.4,0.4,5.8c0.5,1.4,1,4.5,5.4,3.6c3.6-0.8,5.5-2.8,5.8-6.2c0.2-2.4,0.6-2,0.6-4.2
		l0.3-1c0.4-3.3,0.1-4.3,2.3-3.8l0.5,0c1.7,0.1,3.8-0.3,5.1-0.9C58.9,43.6,60.5,41.5,57.8,42L57.8,42"/>
	<path class="st1" d="M31,25.7c-0.6-0.1-1.1,0-1.3,0.2c-0.1,0.1-0.2,0.2-0.2,0.3c0,0.2,0.1,0.5,0.2,0.6c0.3,0.4,0.7,0.6,1.1,0.7
		c0.1,0,0.1,0,0.2,0c0.7,0,1.3-0.5,1.3-0.9C32.3,26.1,31.6,25.8,31,25.7 M49.3,25.7c-0.1-0.4-0.7-0.5-1.4-0.4
		c-0.6,0.1-1.3,0.4-1.2,0.8c0,0.3,0.6,0.8,1.2,0.8c0.1,0,0.1,0,0.2,0c0.4-0.1,0.7-0.3,0.9-0.5C49.2,26.1,49.3,25.8,49.3,25.7"/>
	<path class="st1" d="M59.8,41.9c-0.2-0.7-1-0.9-2.2-0.7c-3.7,0.8-5.1,0.2-5.5-0.1c2.9-4.4,5.3-9.7,6.6-14.7c0.6-2.4,0.9-4.5,1-6.3
		c0-2-0.3-3.4-1-4.3c-2.8-3.5-6.8-5.4-11.8-5.5c-3.4,0-6.2,0.8-6.8,1.1c-1.2-0.3-2.4-0.5-3.8-0.5c-2.5,0-4.7,0.6-6.6,1.8
		c-0.8-0.3-2.8-1-5.3-1.4c-4.3-0.7-7.7-0.2-10.2,1.6c-2.9,2.1-4.3,5.8-4,11c0.1,1.8,1.1,7.2,2.7,12.3c2.1,6.8,4.3,10.7,6.7,11.5
		c0.3,0.1,0.6,0.2,1,0.2c0.9,0,1.9-0.4,3-1.7c1.3-1.6,2.7-3.2,4.2-4.7c0.9,0.5,2,0.8,3,0.8c0,0,0,0.1,0,0.1
		c-0.2,0.2-0.4,0.4-0.5,0.7c-0.7,0.9-0.9,1.1-3.2,1.6c-0.7,0.1-2.4,0.5-2.5,1.7c0,1.4,2.1,1.9,2.3,2c0.8,0.2,1.7,0.3,2.4,0.3
		c1.9,0,3.5-0.6,4.9-1.8c0,4.8,0.2,9.6,0.7,11c0.5,1.2,1.6,4.1,5.3,4.1c0.5,0,1.1-0.1,1.8-0.2c3.8-0.8,5.5-2.5,6.1-6.2
		c0.3-2,0.9-6.8,1.2-9.3c0.6,0.2,1.3,0.3,2.2,0.3c1.7,0,3.7-0.4,4.9-0.9C57.8,44.8,60.3,43.3,59.8,41.9L59.8,41.9z M50.7,24.6
		c0,0.8-0.1,1.4-0.2,2.2c-0.1,0.8-0.2,1.6-0.3,2.5c0,0.9,0.1,1.9,0.2,2.9c0.2,1.9,0.5,3.9-0.4,5.8c-0.2-0.3-0.3-0.5-0.4-0.8
		c-0.1-0.3-0.4-0.7-0.7-1.3c-1.3-2.4-4.4-7.9-2.8-10.2C46.5,25,47.7,24.3,50.7,24.6L50.7,24.6z M47.1,11.9c4.4,0.1,7.9,1.7,10.4,4.9
		c1.9,2.4-0.2,13.4-6.2,22.9c-0.1-0.1-0.1-0.2-0.2-0.2L51,39.4c1.6-2.6,1.3-5.1,1-7.4c-0.1-0.9-0.2-1.8-0.2-2.6
		c0-0.9,0.1-1.6,0.3-2.3c0.1-0.9,0.3-1.8,0.2-2.9c0-0.1,0-0.2,0-0.4c-0.1-1-1.3-4.2-3.7-7c-1.3-1.5-3.3-3.3-5.9-4.4
		C43.8,12,45.3,11.8,47.1,11.9L47.1,11.9z M22.4,45.1c-1.2,1.5-2.1,1.2-2.3,1.1c-1.8-0.6-3.9-4.4-5.7-10.5c-1.6-5.2-2.5-10.5-2.6-12
		c-0.2-4.7,0.9-7.9,3.4-9.7c4-2.8,10.6-1.1,13.3-0.3c0,0-0.1,0.1-0.1,0.1C23.9,18.4,24,25.9,24,26.3c0,0.2,0,0.4,0,0.8
		c0.1,1.3,0.2,3.6-0.2,6.3c-0.3,2.5,0.4,4.9,2.1,6.6c0.2,0.2,0.4,0.3,0.5,0.5C25.8,41.3,24.1,43.1,22.4,45.1L22.4,45.1z M27.1,38.9
		c-1.3-1.4-2-3.4-1.7-5.4c0.4-2.8,0.2-5.3,0.2-6.6c0-0.2,0-0.3,0-0.5c0.6-0.6,3.6-2.1,5.7-1.7c1,0.2,1.5,0.9,1.8,2
		c1.3,5.8,0.2,8.2-0.7,10.2c-0.2,0.4-0.4,0.8-0.5,1.2l-0.1,0.3c-0.3,0.8-0.6,1.5-0.7,2.2C29.5,40.7,28.1,40.1,27.1,38.9L27.1,38.9z
		 M27.3,46.8c-0.4-0.1-0.8-0.3-1-0.4c0.2-0.1,0.5-0.2,1.1-0.3c2.8-0.6,3.2-1,4.1-2.1c0.2-0.3,0.5-0.6,0.8-1l0,0
		c0.5-0.6,0.7-0.5,1.1-0.3c0.3,0.1,0.7,0.6,0.8,1c0.1,0.2,0.1,0.6-0.1,1C32.1,47.3,29.3,47.3,27.3,46.8z M41.7,60.2
		c-3.4,0.7-4.6-1-5.4-3c-0.5-1.3-0.8-7-0.6-13.3c0-0.1,0-0.2,0-0.2c0-0.2-0.1-0.3-0.1-0.4c-0.3-0.9-0.9-1.7-1.7-2
		c-0.3-0.1-0.9-0.4-1.5-0.2c0.1-0.6,0.4-1.3,0.7-2l0.1-0.3c0.1-0.3,0.3-0.7,0.5-1.1c0.9-2,2.2-4.8,0.8-11.1
		c-0.5-2.4-2.2-3.5-4.8-3.2c-1.5,0.2-3,0.8-3.7,1.1c-0.2,0.1-0.3,0.2-0.4,0.2c0.2-2.4,0.9-6.8,3.7-9.6c1.8-1.8,4.1-2.6,6.9-2.6
		c5.6,0.1,9.2,3,11.2,5.4c1.7,2.1,2.7,4.1,3.1,5.3c-2.8-0.3-4.8,0.3-5.8,1.7c-2.1,3,1.2,9,2.8,11.8c0.3,0.5,0.5,1,0.6,1.2
		c0.5,1.3,1.2,2.1,1.7,2.7c0.1,0.2,0.3,0.4,0.4,0.5c-0.9,0.2-2.4,0.8-2.3,3.7c-0.1,1.4-0.9,8.2-1.3,10.6
		C46.1,58.3,45,59.5,41.7,60.2L41.7,60.2z M55.8,44.1c-0.9,0.4-2.4,0.7-3.8,0.8c-1.5,0.1-2.3-0.2-2.5-0.3c-0.1-1.8,0.6-2,1.3-2.2
		c0.1,0,0.2-0.1,0.3-0.1c0.1,0.1,0.1,0.1,0.2,0.2c1.2,0.8,3.5,0.9,6.6,0.3l0,0C57.5,43.1,56.8,43.6,55.8,44.1L55.8,44.1z"/>
</g>
</svg>
